<?xml version="1.0" standalone="no"?>
<!DOCTYPE svg PUBLIC "-//W3C//DTD SVG 20010904//EN"
 "http://www.w3.org/TR/2001/REC-SVG-20010904/DTD/svg10.dtd">
<svg version="1.0" xmlns="http://www.w3.org/2000/svg"
 width="662.000000pt" height="176.000000pt" viewBox="0 0 662.000000 176.000000"
 preserveAspectRatio="xMidYMid meet">

<g transform="translate(0.000000,176.000000) scale(0.100000,-0.100000)"
fill="#000000" stroke="none">
<path d="M1380 1504 l0 -255 33 3 32 3 5 165 5 164 79 -93 80 -94 35 39 c20
22 57 64 83 94 l48 55 0 -167 0 -168 35 0 35 0 0 256 c0 142 -4 254 -9 252 -5
-1 -54 -58 -110 -125 -56 -67 -106 -125 -111 -128 -5 -3 -44 36 -86 87 -94
113 -142 168 -149 168 -3 0 -5 -115 -5 -256z"/>
<path d="M3694 1725 c-8 -19 -54 -121 -103 -225 -105 -223 -108 -230 -90 -241
32 -20 47 -8 82 71 l36 80 95 0 96 0 36 -80 c38 -82 57 -97 84 -65 10 12 -4
48 -75 202 -49 104 -99 212 -111 241 -13 28 -26 52 -29 52 -3 0 -13 -16 -21
-35z m52 -180 c13 -31 24 -58 24 -60 0 -3 -25 -5 -55 -5 -31 0 -55 4 -55 10 0
14 49 110 56 110 3 0 16 -25 30 -55z"/>
<path d="M305 1721 c-118 -54 -179 -177 -146 -297 40 -149 222 -224 361 -148
62 34 70 48 42 77 -20 19 -23 20 -40 4 -10 -9 -34 -23 -55 -32 -119 -49 -248
35 -250 163 -2 147 158 233 285 153 l46 -29 21 22 22 23 -37 28 c-73 56 -174
71 -249 36z"/>
<path d="M895 1728 c-208 -75 -228 -359 -31 -460 57 -29 157 -29 219 1 85 41
137 126 137 226 0 162 -174 287 -325 233z m189 -91 c49 -38 69 -81 69 -149 0
-128 -119 -209 -244 -167 -120 41 -158 199 -71 293 41 43 79 57 148 53 49 -2
69 -9 98 -30z"/>
<path d="M4747 1725 c-165 -63 -216 -267 -100 -396 145 -160 408 -77 430 135
11 105 -40 202 -130 248 -53 26 -149 33 -200 13z m195 -87 c105 -80 89 -252
-28 -308 -37 -18 -56 -22 -101 -17 -30 3 -65 13 -78 21 -117 76 -110 252 11
320 47 26 152 18 196 -16z"/>
<path d="M6229 1721 c-68 -36 -96 -109 -65 -169 22 -43 46 -59 125 -86 93 -31
107 -51 80 -109 -34 -74 -169 -52 -169 28 0 22 -4 25 -36 25 l-36 0 6 -37 c19
-108 130 -162 226 -111 55 30 83 76 83 135 0 59 -41 103 -121 127 -84 26 -102
40 -102 81 0 39 28 65 70 65 35 0 59 -19 68 -55 7 -24 14 -31 40 -33 38 -4 40
7 16 68 -30 74 -116 108 -185 71z"/>
<path d="M2050 1490 l0 -240 30 0 30 0 0 79 0 78 74 5 c89 6 129 30 158 96 35
79 6 162 -72 202 -31 16 -59 20 -130 20 l-90 0 0 -240z m215 145 c19 -18 25
-35 25 -65 0 -65 -32 -90 -115 -90 l-65 0 0 90 0 90 65 0 c57 0 69 -3 90 -25z"/>
<path d="M2520 1566 c0 -176 7 -214 49 -259 38 -42 73 -57 133 -57 67 0 114
24 153 79 l30 43 3 179 4 179 -36 0 -36 0 0 -167 c0 -149 -2 -172 -20 -200
-39 -64 -145 -66 -192 -3 -18 25 -22 74 -28 353 0 12 -8 17 -30 17 l-30 0 0
-164z"/>
<path d="M3030 1695 l0 -35 75 0 75 0 0 -205 0 -205 30 0 30 0 0 205 0 205 75
0 75 0 0 35 0 35 -180 0 -180 0 0 -35z"/>
<path d="M4100 1489 l0 -242 93 5 c107 6 154 25 210 87 43 48 61 107 54 177
-6 62 -23 97 -70 145 -47 48 -111 69 -209 69 l-78 0 0 -241z m210 149 c72 -50
101 -125 75 -199 -9 -24 -23 -52 -33 -62 -27 -31 -93 -57 -144 -57 l-48 0 0
170 0 170 59 0 c44 0 66 -5 91 -22z"/>
<path d="M5240 1490 l0 -241 33 3 32 3 3 89 3 90 99 -99 100 -100 22 23 22 22
-62 63 c-64 65 -72 77 -48 77 23 0 78 51 92 87 31 73 8 147 -59 197 -24 17
-46 22 -133 24 l-104 4 0 -242z m217 148 c18 -17 23 -32 23 -69 0 -65 -29 -89
-111 -89 l-59 0 0 90 0 90 62 0 c50 0 66 -4 85 -22z"/>
<path d="M5730 1490 l0 -240 125 0 125 0 0 35 0 35 -95 0 -95 0 0 75 0 75 70
0 70 0 0 35 0 35 -70 0 -70 0 0 60 0 60 85 0 85 0 0 35 0 35 -115 0 -115 0 0
-240z"/>
<path d="M5852 1095 c-132 -29 -217 -94 -272 -209 -45 -95 -55 -154 -55 -321
1 -125 4 -162 23 -220 32 -105 89 -187 163 -235 78 -50 145 -65 299 -65 105 0
137 4 198 24 134 44 223 155 258 321 23 110 15 341 -16 430 -43 126 -105 201
-204 246 -96 43 -268 56 -394 29z m141 -242 c-7 -2 -19 -2 -25 0 -7 3 -2 5 12
5 14 0 19 -2 13 -5z m64 -26 c4 -5 1 -7 -7 -5 -8 2 -14 -3 -12 -9 1 -7 -2 -13
-8 -13 -5 0 -10 5 -10 10 0 26 -16 6 -18 -22 -4 -47 -9 -45 -13 4 -4 43 -4 44
28 43 17 0 35 -4 40 -8z m-267 -21 c0 -2 -8 -10 -17 -17 -16 -13 -17 -12 -4 4
13 16 21 21 21 13z m450 -17 c0 -4 -9 -7 -19 -6 -11 0 -18 4 -16 7 6 9 35 8
35 -1z m-454 -28 c-9 -10 -19 -31 -22 -47 -3 -15 -7 -31 -10 -36 -3 -4 0 -17
6 -28 7 -13 7 -20 0 -20 -5 0 -10 7 -10 15 0 8 -4 15 -9 15 -14 0 -20 -27 -8
-39 11 -11 18 -51 8 -51 -3 0 -15 7 -25 15 -19 15 -19 15 5 15 19 0 21 2 9 10
-16 10 -23 50 -9 50 5 0 9 7 9 16 0 8 -4 12 -10 9 -18 -11 -10 7 13 29 12 11
30 34 40 49 10 16 21 26 24 23 4 -3 -1 -14 -11 -25z m49 -1 c16 -17 16 -20 3
-15 -9 4 -19 13 -22 21 -7 19 -2 18 19 -6z m380 4 c11 1 26 5 32 9 6 4 15 3
18 -3 4 -6 1 -9 -7 -8 -7 2 -12 -5 -12 -14 1 -10 -4 -18 -12 -18 -8 0 -14 -5
-14 -11 0 -6 7 -8 15 -5 11 4 17 -3 22 -24 3 -16 9 -27 14 -24 5 3 9 -3 9 -13
1 -17 1 -17 15 1 13 18 14 17 20 -7 4 -15 5 -32 2 -39 -3 -7 -6 0 -6 16 -1 22
-4 26 -14 17 -17 -13 -44 5 -49 32 -1 10 -7 18 -13 18 -5 0 -14 7 -19 16 -7
13 -10 13 -17 2 -7 -10 -8 -5 -5 13 3 15 0 30 -5 33 -5 4 -9 12 -9 18 0 9 2 9
8 1 4 -6 16 -11 27 -10z m-474 -17 c-10 -9 -11 -8 -5 6 3 10 9 15 12 12 3 -3
0 -11 -7 -18z m75 -2 c9 -8 11 -15 5 -15 -6 0 -11 -5 -11 -11 0 -5 5 -7 10 -4
6 4 1 -12 -11 -35 -20 -37 -23 -40 -37 -26 -9 9 -12 19 -8 23 4 4 11 2 15 -6
6 -9 10 -6 16 11 11 36 12 58 3 58 -4 0 -8 -11 -8 -25 0 -14 -4 -25 -10 -25
-12 0 -12 0 1 39 13 35 15 37 35 16z m166 -45 c3 -54 4 -55 38 -61 l35 -7 -40
2 -40 1 -3 65 c-2 35 -1 62 2 59 3 -2 6 -29 8 -59z m196 25 c-3 -3 -9 2 -12
12 -6 14 -5 15 5 6 7 -7 10 -15 7 -18z m97 14 c-4 -5 1 -20 12 -31 18 -21 18
-21 -4 -9 -23 11 -30 31 -16 44 10 11 15 8 8 -4z m-258 -70 c2 -12 -1 -18 -7
-14 -5 3 -10 16 -10 27 0 26 13 16 17 -13z m262 -91 c-13 -24 -18 -23 -12 2 7
25 -12 26 -26 3 -9 -15 -10 -15 -11 -2 0 26 20 39 41 26 13 -8 15 -15 8 -29z
m-512 -5 c-3 -10 -5 -4 -5 12 0 17 2 24 5 18 2 -7 2 -21 0 -30z m-47 -13 c0
-5 -2 -10 -4 -10 -3 0 -8 5 -11 10 -3 6 -1 10 4 10 6 0 11 -4 11 -10z m26 -43
c-2 -7 -5 -3 -5 7 -1 20 -1 20 -16 0 -18 -23 -20 -11 -3 16 11 17 14 17 21 4
5 -8 6 -20 3 -27z m50 -14 c-2 -17 3 -33 13 -40 14 -10 14 -11 -2 -10 -12 1
-23 -9 -32 -30 -12 -29 -12 -35 5 -55 11 -13 19 -18 20 -11 0 6 -4 15 -10 18
-12 8 -13 25 -1 25 12 0 22 -43 13 -52 -5 -5 -21 5 -37 22 -16 16 -23 30 -17
30 7 0 12 6 12 14 0 7 6 26 14 42 11 20 12 33 4 47 -7 14 -7 17 1 13 6 -4 11
-2 11 3 0 6 2 11 4 11 3 0 3 -12 2 -27z m471 -25 c1 -17 7 -34 12 -37 5 -4 4
-16 -4 -31 -8 -14 -14 -19 -15 -12 0 17 -20 15 -20 -3 0 -8 -9 -15 -20 -15
-13 0 -18 5 -14 15 4 8 2 15 -4 15 -6 0 -12 -5 -14 -12 -2 -6 -9 -8 -16 -4 -9
5 -9 11 0 26 13 21 57 22 82 1 10 -8 16 -9 16 -3 0 6 -5 14 -10 17 -6 4 -8 16
-4 28 6 20 5 21 -11 7 -22 -18 -43 -21 -52 -8 -3 6 -1 8 5 4 6 -3 13 -2 17 4
4 6 10 8 15 5 4 -3 10 4 13 15 8 31 22 24 24 -12z m-500 1 c2 -16 -1 -19 -9
-11 -5 5 -7 15 -4 21 10 15 12 14 13 -10z m43 -59 c0 -5 -4 -10 -10 -10 -5 0
-10 5 -10 10 0 6 5 10 10 10 6 0 10 -4 10 -10z m46 -11 c10 -12 28 -25 39 -30
17 -6 17 -8 3 -8 -10 -1 -18 -6 -18 -12 0 -6 9 -9 20 -6 11 3 20 1 20 -4 0 -5
-14 -9 -31 -9 -16 0 -28 4 -25 9 3 5 -1 12 -10 15 -20 8 -24 8 -23 -1 3 -19
-2 -31 -14 -36 -11 -4 -11 2 1 28 13 29 18 32 35 24 28 -16 30 -5 2 19 -24 21
-24 21 -30 1 -4 -11 -9 -18 -12 -16 -7 8 7 47 16 47 4 0 16 -10 27 -21z m290
-62 c-2 -7 -5 -4 -5 6 -1 10 -5 15 -11 12 -6 -4 -7 1 -3 11 6 15 7 15 15 0 5
-9 7 -22 4 -29z m22 18 c-3 -3 -9 2 -12 12 -6 14 -5 15 5 6 7 -7 10 -15 7 -18z
m-66 -12 c-6 -2 -10 -9 -7 -14 4 -5 -2 -6 -11 -2 -12 4 -15 3 -10 -5 11 -17
33 -15 46 6 10 16 10 16 8 -2 -2 -10 3 -21 11 -24 9 -3 11 0 6 8 -6 9 -3 9 14
1 11 -7 21 -14 21 -17 0 -3 -4 -3 -9 1 -5 3 -22 -6 -36 -21 -14 -14 -29 -23
-33 -19 -4 4 -1 10 7 13 11 4 11 6 0 14 -10 6 -6 7 11 2 22 -6 23 -5 12 9 -15
17 -56 11 -48 -8 4 -10 -2 -10 -22 1 -31 16 -66 19 -57 4 3 -5 -1 -10 -10 -10
-9 0 -13 5 -10 10 11 18 -17 11 -31 -7 -12 -17 -13 -17 -14 -1 0 19 32 33 70
30 24 -2 23 -1 -5 12 -36 17 -30 20 13 5 25 -9 36 -8 54 5 12 9 27 16 33 15 5
0 4 -3 -3 -6z m-136 -15 c4 -7 3 -8 -5 -4 -6 4 -17 4 -24 -2 -19 -14 -49 -23
-42 -12 3 6 13 10 21 10 8 0 14 5 14 10 0 14 27 13 36 -2z m-87 -25 c0 -11 -3
-13 -6 -5 -2 6 -9 12 -15 12 -6 0 -8 -7 -4 -15 3 -8 1 -15 -4 -15 -11 0 -13
23 -3 33 13 13 33 7 32 -10z m321 7 c0 -5 -2 -10 -4 -10 -3 0 -8 5 -11 10 -3
6 -1 10 4 10 6 0 11 -4 11 -10z m-290 -25 c-10 -12 -10 -15 3 -15 9 0 18 -4
21 -9 3 -4 -6 -6 -19 -3 -35 6 -32 34 4 41 2 1 -2 -6 -9 -14z m70 -25 c0 -5
-2 -10 -4 -10 -3 0 -8 5 -11 10 -3 6 -1 10 4 10 6 0 11 -4 11 -10z m90 0 c0
-6 -11 -8 -27 -4 -40 10 -41 14 -5 14 18 0 32 -5 32 -10z"/>
<path d="M5741 704 c0 -11 3 -14 6 -6 3 7 2 16 -1 19 -3 4 -6 -2 -5 -13z"/>
<path d="M6210 745 c-8 -9 -8 -15 -2 -15 12 0 26 19 19 26 -2 2 -10 -2 -17
-11z"/>
<path d="M6179 413 c-13 -16 -12 -17 4 -4 16 13 21 21 13 21 -2 0 -10 -8 -17
-17z"/>
<path d="M6215 413 c3 -8 5 -18 5 -21 0 -8 20 20 20 29 0 3 -7 6 -15 6 -10 0
-14 -6 -10 -14z"/>
<path d="M6048 313 c7 -3 16 -2 19 1 4 3 -2 6 -13 5 -11 0 -14 -3 -6 -6z"/>
<path d="M160 795 l0 -295 -50 0 -50 0 0 -55 0 -55 50 0 50 0 0 -170 0 -170
145 0 145 0 0 170 0 170 140 0 140 0 0 -170 0 -170 140 0 140 0 0 520 0 520
-140 0 -140 0 0 -295 0 -295 -140 0 -140 0 -2 293 -3 292 -142 3 -143 3 0
-296z"/>
<path d="M1267 1083 c-4 -3 -7 -237 -7 -520 l0 -513 145 0 145 0 0 520 0 520
-138 0 c-76 0 -142 -3 -145 -7z"/>
<path d="M1800 570 l0 -523 203 6 c287 8 389 38 498 147 64 64 91 110 113 197
19 72 21 247 5 325 -27 128 -116 242 -230 296 -99 47 -191 62 -401 69 l-188 6
0 -523z m386 381 c117 -53 178 -242 154 -475 -19 -182 -91 -285 -217 -309
l-33 -7 0 405 0 405 28 0 c15 0 45 -9 68 -19z"/>
<path d="M2996 1008 c-13 -46 -41 -137 -61 -203 -138 -455 -225 -744 -225
-749 0 -3 56 -6 125 -6 l124 0 10 37 c6 20 16 60 22 90 l12 53 146 0 146 0 19
-80 c11 -43 22 -84 26 -90 4 -7 52 -10 137 -8 l131 3 -85 280 c-47 154 -117
386 -157 515 l-72 235 -136 3 -137 3 -25 -83z m208 -440 c27 -106 51 -199 54
-205 3 -10 -22 -13 -107 -13 -61 0 -111 3 -111 6 0 4 20 81 44 173 24 91 47
181 51 199 3 17 10 32 14 32 3 0 28 -87 55 -192z"/>
<path d="M3747 1083 c-4 -3 -7 -237 -7 -520 l0 -513 335 0 335 0 0 55 0 55
-190 0 -190 0 0 465 0 465 -138 0 c-76 0 -142 -3 -145 -7z"/>
<path d="M4810 1074 c-97 -20 -200 -75 -253 -134 -86 -95 -122 -207 -121 -375
1 -275 125 -439 379 -502 87 -21 368 -22 460 -2 l60 14 3 165 c3 195 -5 237
-59 291 -60 60 -171 86 -336 80 l-43 -1 0 -54 0 -54 60 -4 c101 -7 119 -43
120 -237 l0 -104 -72 5 c-161 11 -254 114 -280 312 -30 225 39 409 181 478 39
19 63 22 158 22 l113 1 0 51 c0 45 -3 52 -22 58 -42 11 -283 4 -348 -10z"/>
</g>
</svg>
